<svg class="w-12 h-12" xmlns="http://www.w3.org/2000/svg" viewBox="0 0 128 128" class="w-12 h-12">
            <path fill="#1572B6" d="M19.037 113.876L9.032 1.661h109.936l-10.016 112.198-45.019 12.48z"/>
            <path fill="#33A9DC" d="M64 116.8l36.378-10.086 8.559-95.878H64z"/>
            <path fill="#fff" d="M64 52.455H45.788L44.53 38.361H64V24.599H29.489l.33 3.692 3.382 37.927H64zm0 35.743l-.14.037-13.003-3.509-.832-9.32H36.653l1.637 18.844 23.888 6.632.022-.006z"/>
            <path fill="#EBEBEB" d="M63.952 52.455v13.763h16.947l-1.597 17.849-15.35 4.143v14.319l28.215-7.82.207-2.325 3.234-36.233.335-3.696H63.952zm0-27.856v13.762h33.244l.276-3.092.628-6.978.329-3.692H63.952z"/>
        </svg>